# xmcd
#
# Track frame offsets: 
#        150
#        26485
#        49659
#        68421
#        84784
#        112916
#        133776
#        152088
#        181753
#        200219
#        216546
#
# Disc length: 3592 seconds
#
# Revision: 0
# Processed by: cddbd v1.5.2PL0 Copyright (c) Steve Scherf et al.
# Submitted via: ExactAudioCopy v0.95b1
#
DISCID=900e060b
DTITLE=Earl Green - One Way
DYEAR=2008
DGENRE=Blues
TTITLE0=I Know You Like It
TTITLE1=Heavy Load
TTITLE2=Losing My Mind
TTITLE3=Hand in Hand
TTITLE4=One Way
TTITLE5=I Wish it Was Simple
TTITLE6=Good News
TTITLE7=Hard Times
TTITLE8=Brand New Day
TTITLE9=In For a Big Surprise
TTITLE10=Lonely Man
EXTD=
EXTT0=
EXTT1=
EXTT2=
EXTT3=
EXTT4=
EXTT5=
EXTT6=
EXTT7=
EXTT8=
EXTT9=
EXTT10=
PLAYORDER=
